<svg xmlns="http://www.w3.org/2000/svg" viewBox="0 0 640 640" width="640px" height="640px"><path d="M320,602.47C165.36,602.47,38.43,474.64,38.43,320a275,275,0,0,1,15.65-92.07l164,319.56c2.47,4.82,4.92,8,10.29,8s8.1-3.29,10.27-8l77.76-170.28c.89-1.78,1.79-3.59,3.58-3.59s2.69,1.81,3.58,3.59l77.76,170.28c2.18,4.75,4.92,8,10.28,8s7.81-3.22,10.28-8l164-319.56A275,275,0,0,1,601.57,320c0,154.64-126.93,282.47-281.57,282.47m0-355.76c-1.79,0-2.69-1.8-3.58-3.58L228.83,53.19a273.41,273.41,0,0,1,182.35,0l-87.6,189.94C322.69,244.91,321.78,246.71,320,246.71ZM227.49,452.29c-1.79,0-2.68-1.79-3.58-3.57L80.45,172.51A285.55,285.55,0,0,1,184.58,72.85l101,219.45c2.24,4.47,4.47,5.36,8,5.36h52.75c3.56,0,5.8-.89,8-5.36l101-219.45a285.37,285.37,0,0,1,104.12,99.66L416.09,448.72c-.9,1.78-1.79,3.57-3.58,3.57s-2.67-1.79-3.57-3.57L354.41,328.05c-1.78-4.47-4.47-5.36-8-5.36H293.63c-3.57,0-6.26.89-8,5.36L231.06,448.72C230.17,450.5,229.28,452.29,227.49,452.29ZM320,640c177,0,320-143,320-320S497,0,320,0,0,143,0,320,143,640,320,640Z" style="fill:#fff"/></svg>