<?xml version="1.0" encoding="utf-8"?>
<!-- Generator: Adobe Illustrator 25.3.1, SVG Export Plug-In . SVG Version: 6.00 Build 0)  -->
<svg version="1.1" id="Regular__x2013__WayToZero" xmlns="http://www.w3.org/2000/svg" xmlns:xlink="http://www.w3.org/1999/xlink"
	 x="0px" y="0px" viewBox="0 0 425.2 141.73" style="enable-background:new 0 0 425.2 141.73;" xml:space="preserve">
<style type="text/css">
	.st0{fill:#FFFFFF;}
</style>
<path class="st0" d="M49.58,63.41l-4.2,11.71h-2.95l-4.2-11.71v-0.18h2.64l3.02,9.34h0.05l2.99-9.34h2.64V63.41z M54.82,75.39
	c-2.89,0-4.44-2.03-4.44-4.48s1.56-4.48,4.44-4.48c2.94,0,4.46,2.03,4.46,4.48S57.76,75.39,54.82,75.39z M54.82,73.45
	c1.24,0,2.05-0.84,2.05-2.54s-0.8-2.54-2.05-2.54c-1.21,0-2.03,0.84-2.03,2.54S53.61,73.45,54.82,73.45z M64.15,62.88v10.35
	c0,0.26,0.02,0.31,0.28,0.31h0.93v1.61c-0.37,0.07-0.89,0.12-1.4,0.12c-1.61,0-2.17-0.79-2.17-2.47v-9.93H64.15z M70,71.22v3.9
	h-2.36V62.88H70v7.61h0.04l2.95-3.79h2.57v0.18l-3.2,3.92l3.36,4.16v0.17h-2.68l-3.01-3.9H70z M78.25,72.89
	c0.82,0.42,1.78,0.72,2.71,0.72c0.93,0,1.33-0.28,1.33-0.82c0-0.51-0.4-0.7-1.15-0.89l-1.1-0.26c-1.17-0.28-2.29-0.94-2.29-2.48
	c0-1.66,1.31-2.71,3.5-2.71c1.28,0,2.17,0.21,3.15,0.61l-0.65,1.68c-0.75-0.28-1.61-0.51-2.43-0.51c-0.89,0-1.28,0.26-1.28,0.77
	c0,0.49,0.38,0.66,1.08,0.86l1.07,0.26c1.35,0.33,2.4,1.03,2.4,2.52c0,1.75-1.4,2.76-3.55,2.76c-1.45,0-2.48-0.3-3.48-0.8
	L78.25,72.89z M100.44,66.87l-2.52,8.25h-2.57l-1.92-6.07h-0.03l-1.92,6.07H88.9l-2.52-8.25V66.7h2.36l1.56,5.84h0.04l1.8-5.84h2.55
	l1.8,5.84h0.04l1.56-5.84h2.36V66.87z M109.69,73.29c0,0.26,0.02,0.32,0.28,0.32h0.61v1.61c-0.37,0.07-0.72,0.12-1.22,0.12
	c-0.91,0-1.38-0.35-1.68-1h-0.04c-0.56,0.47-1.68,1.05-2.71,1.05c-1.89,0-2.85-1.12-2.85-2.66c0-1.87,1.19-2.76,4.16-2.76h1.14
	v-0.38c0-1.05-0.93-1.21-1.43-1.21c-0.93,0-1.98,0.24-2.8,0.61l-0.56-1.8c0.89-0.4,2.17-0.75,3.48-0.75c2.43,0,3.62,1.24,3.62,3.41
	V73.29z M106.49,71.49c-1.56,0-2.15,0.4-2.15,1.03c0,0.7,0.4,1.01,1.12,1.01c0.61,0,1.43-0.23,1.92-0.58v-1.47H106.49z
	 M120.84,74.58c0,2.83-1.59,4.27-4.35,4.27c-1.38,0-2.48-0.38-3.3-0.82l0.68-1.73c0.7,0.37,1.57,0.61,2.62,0.61
	c1.38,0,1.99-0.49,1.99-1.89v-0.63h-0.03c-0.51,0.37-1.21,0.84-2.4,0.84c-2.43,0-3.67-1.92-3.67-4.37s1.24-4.42,3.67-4.42
	c1.26,0,1.98,0.59,2.61,1.03h0.04L119,66.7h1.84V74.58z M118.48,68.9c-0.47-0.28-1.08-0.52-1.7-0.52c-1.4,0-1.99,0.98-1.99,2.48
	c0,1.5,0.59,2.43,1.99,2.43c0.61,0,1.22-0.21,1.7-0.47V68.9z M125.79,71.59c0.09,1.19,0.86,1.91,2.12,1.91
	c0.98,0,1.87-0.23,2.69-0.52l0.54,1.7c-0.84,0.4-2.06,0.72-3.41,0.72c-2.92,0-4.34-2.01-4.34-4.49c0-2.4,1.47-4.46,4.21-4.46
	c2.73,0,3.93,1.66,3.93,3.64c0,0.54-0.07,1.22-0.12,1.52H125.79z M129.38,70.12c0.02-0.09,0.02-0.18,0.02-0.26
	c0-0.94-0.44-1.71-1.77-1.71c-1.19,0-1.78,0.96-1.84,1.98H129.38z M136,66.7l0.31,0.82h0.04c0.49-0.44,1.36-1.08,2.69-1.08
	c1.98,0,3.11,1.35,3.11,3.37v5.32h-2.36v-5.07c0-1.1-0.47-1.68-1.5-1.68c-0.8,0-1.45,0.44-1.82,0.72v6.03h-2.36V66.7H136z
	 M163.26,66.87l-2.52,8.25h-2.57l-1.92-6.07h-0.03l-1.92,6.07h-2.57l-2.52-8.25V66.7h2.36l1.56,5.84h0.04l1.8-5.84h2.55l1.8,5.84
	h0.04l1.56-5.84h2.36V66.87z M172.51,73.29c0,0.26,0.02,0.32,0.28,0.32h0.61v1.61c-0.37,0.07-0.72,0.12-1.22,0.12
	c-0.91,0-1.38-0.35-1.68-1h-0.04c-0.56,0.47-1.68,1.05-2.71,1.05c-1.89,0-2.85-1.12-2.85-2.66c0-1.87,1.19-2.76,4.16-2.76h1.14
	v-0.38c0-1.05-0.93-1.21-1.43-1.21c-0.93,0-1.98,0.24-2.8,0.61l-0.56-1.8c0.89-0.4,2.17-0.75,3.48-0.75c2.43,0,3.62,1.24,3.62,3.41
	V73.29z M169.31,71.49c-1.56,0-2.15,0.4-2.15,1.03c0,0.7,0.4,1.01,1.12,1.01c0.61,0,1.43-0.23,1.92-0.58v-1.47H169.31z
	 M183.28,66.87l-3.62,9.28c-0.75,1.89-1.91,2.69-3.37,2.69c-0.56,0-0.98-0.07-1.38-0.16v-1.87c0.4,0.07,0.89,0.09,1.08,0.09
	c0.75,0,1.17-0.24,1.43-0.93l0.35-0.94l-3.39-8.17V66.7h2.45l2.03,5.73h0.05l1.92-5.73h2.45V66.87z M193.46,64.74v1.96h2.41v1.8
	h-2.41v3.99c0,0.61,0.31,0.96,1,0.96c0.4,0,0.96-0.12,1.36-0.24v1.92c-0.35,0.09-1.15,0.26-1.98,0.26c-1.87,0-2.74-0.77-2.74-2.47
	V68.5h-1.54v-1.28l1.54-0.52v-1.96H193.46z M202.16,75.39c-2.89,0-4.44-2.03-4.44-4.48s1.56-4.48,4.44-4.48
	c2.94,0,4.46,2.03,4.46,4.48S205.09,75.39,202.16,75.39z M202.16,73.45c1.24,0,2.05-0.84,2.05-2.54s-0.8-2.54-2.05-2.54
	c-1.21,0-2.03,0.84-2.03,2.54S200.95,73.45,202.16,73.45z M101.59,34.8H55.86V23.2h61.81v10.35L99.7,60.6H84.69l16.9-25.52V34.8z
	 M69.29,106.4l16.78-25.27H71.09l-17.75,26.8v10.35h64.32v-11.61H69.29V106.4z M134.12,60.6l0-37.4h60.55V34.8h-47.68v25.8H134.12z
	 M146.98,81.13h-12.86v37.15h60.97v-11.61h-48.1V81.13z M347.45,70.87c0,5.58-4.52,10.1-10.1,10.1c-5.03,0-9.19-3.68-9.96-8.49
	H211.43v-3.22h115.96c0.77-4.81,4.93-8.49,9.96-8.49C342.93,60.76,347.45,65.29,347.45,70.87z M337.35,21.26
	c-23.88,0-43.8,16.87-48.53,39.34h12.87c4.47-15.49,18.75-26.85,35.66-26.85c20.47,0,37.12,16.65,37.12,37.12
	s-16.65,37.12-37.12,37.12c-16.91,0-31.2-11.37-35.66-26.85h-12.87c4.73,22.47,24.66,39.34,48.54,39.34
	c27.4,0,49.61-22.21,49.61-49.61C386.96,43.47,364.75,21.26,337.35,21.26z M224.3,60.6V34.8h22.23c12.17,0,18.74,5.31,18.74,15.52
	c0,4.32-1.2,7.74-3.48,10.28h15.08c1.08-3.02,1.68-6.43,1.68-10.28c0-17.9-11.89-27.13-31.32-27.13h-35.8v37.4H224.3z M258.94,81.13
	l25.35,34.91v2.24H270.3l-26.34-37.15H258.94z M224.3,81.13v37.15h-12.86V81.13H224.3z"/>
</svg>
